<?xml version="1.0" standalone="no"?>
<!DOCTYPE svg PUBLIC "-//W3C//DTD SVG 20010904//EN"
 "http://www.w3.org/TR/2001/REC-SVG-20010904/DTD/svg10.dtd">
<svg version="1.0" xmlns="http://www.w3.org/2000/svg"
 width="460.000000pt" height="460.000000pt" viewBox="0 0 460.000000 460.000000"
 preserveAspectRatio="xMidYMid meet">
<metadata>
Created by potrace 1.11, written by Peter Selinger 2001-2013
</metadata>
<g transform="translate(0.000000,460.000000) scale(0.100000,-0.100000)"
fill="#000000" stroke="none">
<path d="M0 3725 l0 -475 26 -12 c20 -9 24 -17 19 -35 -4 -16 -1 -23 10 -23 8
0 15 -9 15 -19 0 -10 7 -21 15 -25 8 -3 15 -14 15 -25 0 -10 6 -21 14 -24 9
-3 12 -15 9 -31 -4 -19 -1 -26 11 -26 9 0 16 -8 16 -20 0 -11 5 -20 10 -20 6
0 10 -11 10 -25 0 -16 6 -25 15 -25 9 0 15 -9 15 -24 0 -15 7 -26 20 -29 14
-4 18 -10 13 -22 -4 -11 0 -21 10 -27 10 -5 17 -17 17 -27 0 -11 7 -21 15 -25
8 -3 15 -14 15 -25 0 -11 7 -24 16 -29 18 -10 16 -43 -3 -49 -7 -3 -9 3 -6 16
9 36 -16 23 -34 -16 -14 -34 -17 -35 -20 -15 -6 30 -18 28 -33 -8 -15 -36 -27
-39 -33 -7 -3 21 -4 21 -15 -5 -12 -30 -32 -38 -32 -13 0 25 -15 17 -27 -15
-11 -29 -32 -42 -29 -17 3 26 -19 15 -27 -13 -8 -30 -27 -33 -27 -4 0 8 -4 14
-10 14 -6 0 -10 -52 -10 -135 0 -117 2 -135 16 -135 10 0 14 6 11 15 -8 20 11
29 29 14 12 -10 16 -9 21 9 3 15 13 22 29 22 13 0 24 5 24 10 0 6 12 10 26 10
24 0 25 2 13 17 -13 15 -10 16 30 9 38 -6 43 -5 37 10 -5 14 -1 16 24 11 26
-6 30 -3 30 14 0 12 5 19 13 16 6 -2 11 -14 10 -26 -2 -13 3 -21 12 -21 8 0
15 -9 15 -20 0 -11 7 -23 16 -27 9 -3 14 -13 11 -25 -3 -11 2 -22 14 -28 10
-6 16 -17 13 -25 -4 -9 0 -15 10 -15 11 0 16 -9 16 -29 0 -17 6 -31 16 -35 10
-4 13 -13 9 -25 -4 -13 0 -20 16 -24 16 -4 19 -11 14 -26 -5 -15 -2 -21 9 -21
11 0 16 -9 16 -29 0 -16 6 -31 15 -35 8 -3 15 -12 15 -21 0 -8 5 -15 10 -15 6
0 10 -11 10 -25 0 -16 6 -25 15 -25 9 0 15 -9 15 -25 0 -18 5 -25 20 -25 23 0
24 -4 9 -31 -9 -17 -7 -21 10 -26 14 -3 21 -13 21 -29 0 -15 6 -24 16 -24 10
0 13 -6 9 -19 -4 -13 0 -20 15 -24 16 -4 21 -12 18 -29 -2 -15 2 -23 12 -23 9
0 14 -9 13 -20 -1 -10 7 -25 17 -32 11 -8 17 -20 14 -28 -4 -8 1 -18 10 -21 9
-3 16 -14 16 -24 0 -10 9 -20 20 -23 14 -3 20 -14 20 -31 0 -16 6 -26 15 -26
9 0 15 -9 15 -25 0 -16 6 -25 15 -25 17 0 21 -45 5 -55 -6 -3 -10 2 -10 13 0
30 -13 35 -32 10 l-18 -23 0 28 c0 31 -7 34 -26 10 -12 -17 -13 -16 -14 5 0
25 -18 30 -26 7 -9 -23 -26 -18 -19 5 5 14 2 20 -9 20 -9 0 -16 -4 -16 -10 0
-5 -4 -10 -10 -10 -5 0 -7 6 -4 14 9 22 -16 30 -31 10 -14 -18 -14 -18 -15 5
0 23 -1 24 -20 6 -19 -18 -20 -17 -20 3 0 19 -17 39 -24 31 -2 -2 -6 -17 -10
-34 -5 -26 -1 -33 30 -55 19 -14 54 -40 77 -57 23 -18 46 -33 51 -33 5 0 24
-11 43 -26 18 -14 37 -23 42 -20 10 6 35 -20 44 -47 4 -9 15 -17 26 -17 13 0
23 -9 27 -24 4 -18 15 -26 40 -30 20 -4 34 -13 34 -21 0 -8 5 -16 10 -16 6 -1
14 -2 19 -3 5 0 18 -12 30 -26 14 -17 21 -20 21 -10 0 12 4 10 15 -4 8 -11 15
-16 15 -11 0 5 18 -11 40 -35 22 -24 40 -41 40 -37 0 16 39 -20 96 -88 33 -39
83 -94 112 -122 28 -28 52 -56 52 -62 0 -6 13 -11 28 -11 15 0 33 -5 39 -11
13 -13 33 -4 33 17 0 8 10 14 25 14 26 0 32 9 15 26 -7 7 2 9 26 6 33 -4 36
-3 29 17 -7 22 1 26 23 12 10 -6 4 -35 -28 -132 -22 -68 -40 -134 -40 -147 0
-24 17 -63 31 -72 6 -5 14 -37 18 -73 1 -5 5 -5 11 -2 5 3 10 -1 10 -9 0 -19
59 -78 71 -70 5 3 9 -6 9 -20 0 -18 5 -26 18 -26 9 0 24 -6 32 -13 22 -17 48
-70 43 -84 -3 -7 1 -13 9 -13 7 0 35 -20 62 -45 51 -48 67 -53 85 -31 9 11 9
15 -1 19 -8 4 -7 6 5 6 23 1 22 10 -10 45 l-28 30 27 -17 c39 -24 51 -21 32 8
-15 24 -15 25 11 37 18 8 25 17 22 30 -4 12 0 18 11 18 13 0 11 5 -8 20 -23
18 -24 20 -4 20 11 0 25 -5 30 -10 8 -8 15 -6 24 5 7 8 20 15 29 15 14 1 14 2
-1 11 -19 10 -14 39 7 39 7 0 15 9 18 20 3 12 14 20 25 20 16 0 19 5 14 22 -8
32 -42 57 -78 58 -22 0 -34 6 -41 22 -8 19 -16 22 -52 19 -36 -2 -43 1 -48 18
-3 12 -12 21 -20 21 -11 0 -14 7 -10 21 3 12 0 22 -9 26 -11 4 -12 8 -3 19 7
8 10 16 8 17 -2 2 -17 13 -33 25 -16 12 -39 22 -51 22 -12 0 -30 9 -39 19 -17
19 -17 20 3 23 20 3 20 5 6 32 -12 22 -12 32 -4 42 9 11 7 14 -9 14 -31 0 -75
43 -60 58 9 9 9 12 -1 12 -8 0 -10 7 -6 21 5 15 2 22 -15 26 -11 3 -19 11 -16
18 2 7 -1 24 -8 37 -19 36 -25 77 -12 82 7 3 5 10 -6 19 -10 8 -15 22 -12 33
3 12 -1 26 -10 34 -12 9 -13 16 -6 25 8 10 5 17 -10 28 -15 11 -18 16 -8 20
10 4 10 8 -3 22 -12 12 -15 29 -11 61 3 29 1 44 -7 44 -6 0 -11 11 -11 25 0
14 -6 28 -14 31 -8 3 -12 12 -9 20 3 7 -2 17 -11 20 -9 3 -16 14 -16 24 0 10
-7 20 -15 24 -8 3 -15 17 -15 31 0 14 -7 28 -15 31 -8 4 -15 15 -15 25 0 10
-4 19 -10 19 -5 0 -10 8 -10 19 0 10 -7 24 -15 31 -8 7 -15 17 -15 22 0 5 -7
16 -15 24 -8 8 -11 22 -8 31 4 9 -1 19 -10 25 -10 5 -17 17 -17 27 0 11 -7 21
-15 25 -8 3 -15 16 -15 28 0 18 -2 20 -10 8 -11 -18 -79 -210 -80 -225 0 -3
-6 -21 -15 -41 -8 -19 -17 -54 -20 -78 -6 -55 -18 -90 -58 -176 -12 -27 -16
-30 -16 -14 -1 12 -8 24 -16 28 -8 3 -15 14 -15 24 0 11 -7 25 -15 32 -9 7
-13 21 -10 31 4 13 1 19 -9 19 -9 0 -16 9 -16 20 0 11 -7 23 -15 26 -8 4 -15
17 -15 30 0 14 -7 27 -15 30 -8 4 -15 15 -15 25 0 10 -4 19 -10 19 -5 0 -10
11 -10 24 0 13 -7 26 -15 30 -8 3 -15 15 -15 26 0 12 -7 20 -16 20 -12 0 -15
6 -11 21 4 16 0 23 -14 26 -15 4 -19 11 -15 28 4 17 1 24 -13 28 -14 3 -18 11
-14 26 4 15 1 21 -11 21 -10 0 -16 9 -16 25 0 16 -6 25 -15 25 -9 0 -15 9 -15
25 0 16 -6 25 -15 25 -9 0 -15 9 -15 25 0 14 -7 28 -15 31 -8 4 -15 15 -15 25
0 11 -7 19 -16 19 -12 0 -15 6 -10 25 5 18 1 27 -14 35 -10 6 -17 16 -14 24 3
8 -3 16 -15 19 -14 3 -18 11 -14 26 4 15 1 21 -11 21 -10 0 -16 9 -16 24 0 13
-7 26 -15 30 -8 3 -12 12 -9 21 4 8 -1 17 -10 21 -9 3 -16 16 -16 29 0 13 -7
25 -15 29 -8 3 -15 14 -15 25 0 10 -7 21 -15 25 -8 3 -12 12 -9 21 4 8 -1 17
-10 21 -9 3 -16 17 -16 30 0 15 -6 24 -16 24 -12 0 -15 6 -10 24 4 18 1 25
-13 29 -15 3 -18 11 -14 26 4 17 0 24 -15 27 -14 4 -19 13 -18 31 1 22 4 24
33 18 28 -5 32 -3 26 11 -5 15 -2 16 25 11 27 -6 32 -4 32 13 0 17 4 19 27 14
22 -6 25 -4 20 10 -5 13 0 16 23 16 19 0 29 5 27 12 -1 8 8 12 26 10 16 -2 27
1 27 8 0 8 10 10 25 8 20 -4 25 -1 25 15 0 15 5 18 24 15 18 -4 26 0 29 14 4
12 13 17 29 16 14 -2 22 2 21 10 -2 6 6 12 18 12 11 0 27 7 36 15 8 8 19 13
24 9 5 -3 16 2 24 10 9 8 23 12 32 9 9 -4 19 0 24 10 6 9 17 13 29 10 14 -4
20 0 20 11 0 11 9 16 30 16 23 0 28 3 23 16 -5 14 -1 16 21 12 19 -4 29 -1 33
9 4 10 14 12 29 9 17 -5 24 -2 24 9 0 10 10 15 30 15 19 0 29 5 28 13 -2 7 7
12 22 12 15 0 25 6 25 15 0 10 9 14 28 12 19 -2 27 2 27 13 0 11 6 14 24 9 16
-4 25 -1 29 9 4 10 13 13 26 10 15 -4 21 -1 21 11 0 11 9 16 26 16 14 0 23 4
19 10 -4 6 7 10 25 10 18 0 33 6 36 15 4 8 15 15 25 15 10 0 19 5 19 11 0 6
12 9 28 7 17 -2 26 2 24 10 -1 7 8 12 23 12 14 0 25 5 25 11 0 6 14 9 33 7 28
-3 32 -6 29 -28 -3 -29 -71 -207 -114 -297 -29 -62 -30 -83 -3 -83 8 0 30 -10
50 -21 20 -12 47 -21 61 -21 13 0 27 -4 30 -9 10 -16 25 -9 20 9 -4 13 3 25
25 41 22 17 28 26 20 34 -19 19 -12 27 19 21 24 -5 30 -3 30 10 0 12 5 16 19
11 12 -3 21 0 25 10 4 13 13 15 36 10 25 -6 29 -4 23 10 -5 15 -1 16 28 10 28
-6 32 -5 22 6 -28 29 -12 35 40 14 12 -5 17 -2 17 9 0 10 8 16 21 16 15 0 19
4 15 16 -5 14 -1 15 31 9 31 -5 36 -4 26 6 -21 21 -15 29 17 23 19 -4 30 -2
30 5 0 6 11 11 25 11 16 0 25 6 25 15 0 17 9 19 30 5 12 -7 4 -33 -44 -157
-86 -217 -99 -243 -117 -243 -9 0 -19 -7 -23 -15 -3 -8 -12 -15 -19 -15 -8 0
-20 -6 -26 -14 -9 -11 -17 -11 -36 -2 -14 6 -23 17 -20 24 2 6 0 12 -5 12 -6
0 -10 -4 -10 -10 0 -5 -4 -10 -10 -10 -5 0 -10 9 -10 20 0 11 -4 20 -10 20 -5
0 -10 -7 -10 -16 0 -8 -4 -13 -10 -9 -5 3 -7 12 -3 20 6 18 -8 20 -26 3 -10
-11 -12 -10 -11 2 4 29 0 39 -15 34 -8 -4 -15 -1 -15 5 0 7 -8 11 -17 9 -12
-2 -17 3 -15 15 3 20 -9 22 -26 5 -21 -21 -13 -34 50 -79 107 -75 188 -152
188 -178 0 -10 -10 -29 -23 -42 -13 -13 -29 -39 -36 -57 -9 -21 -23 -35 -40
-39 -30 -8 -32 -9 -95 -91 -27 -35 -59 -68 -71 -74 -21 -10 -43 -64 -30 -76 3
-3 5 0 5 7 0 9 6 8 22 -3 24 -17 31 -54 16 -73 -6 -7 -8 -22 -5 -33 3 -11 1
-23 -4 -26 -16 -10 -9 -24 11 -24 14 0 20 6 18 18 -2 11 4 18 19 20 12 2 27
10 33 18 7 8 21 14 31 14 10 0 21 5 24 10 3 6 17 10 31 10 13 0 29 9 36 19 6
10 18 17 25 14 7 -3 13 -1 13 5 0 6 -5 12 -12 14 -7 3 6 14 28 27 34 19 40 27
41 59 1 20 4 46 6 57 3 12 -5 31 -20 46 -26 28 -23 54 8 64 12 4 19 16 19 31
0 14 6 26 13 28 57 15 72 23 72 39 0 22 23 37 43 29 9 -3 13 -1 9 5 -9 14 112
5 130 -9 7 -5 14 -5 18 2 9 15 43 12 52 -4 6 -10 23 -12 73 -7 53 5 65 10 68
25 4 20 40 56 85 83 15 10 27 22 27 28 0 6 10 15 23 20 14 6 21 17 19 29 -3
15 1 18 17 13 12 -3 36 2 53 11 20 9 64 17 116 18 47 2 90 8 98 15 20 16 43
-6 46 -44 1 -15 3 -27 4 -27 1 0 12 17 25 38 17 28 24 33 27 20 2 -10 7 -18
12 -18 5 0 11 -10 13 -22 l4 -23 8 23 c6 17 13 21 34 18 14 -2 29 -5 34 -5 4
-1 7 -12 7 -26 0 -22 3 -25 23 -19 20 4 26 0 36 -24 11 -25 10 -34 -3 -55 -16
-24 -16 -24 11 -19 16 2 33 9 39 13 16 13 24 -1 18 -30 -4 -18 -3 -22 4 -13 6
10 15 -1 31 -38 21 -48 23 -50 36 -33 12 16 14 17 20 1 7 -17 39 -19 64 -4 8
5 17 3 22 -5 12 -19 11 -29 -1 -29 -5 0 -10 -8 -10 -17 1 -17 1 -17 11 0 12
20 29 23 29 5 0 -7 12 -24 26 -37 20 -19 27 -22 37 -11 10 10 8 12 -6 7 -14
-5 -19 0 -24 23 -3 17 -9 30 -14 30 -5 0 -9 5 -9 10 0 6 7 10 15 10 9 0 15
-10 15 -26 0 -21 4 -24 20 -20 11 3 29 9 40 12 22 6 27 24 7 24 -10 0 -12 11
-8 43 7 48 -8 107 -26 107 -7 0 -13 4 -13 8 0 9 -81 52 -99 52 -6 0 -11 4 -11
10 0 12 -55 41 -64 33 -3 -4 -6 1 -6 10 0 10 -8 17 -19 17 -10 0 -24 7 -31 15
-7 8 -19 15 -26 15 -23 0 -32 60 -18 115 14 58 37 122 47 131 4 4 7 14 7 23 0
20 40 120 61 152 9 13 22 42 29 64 7 22 24 57 37 78 l23 37 78 0 77 0 1 35 0
35 -46 0 c-53 0 -97 -12 -153 -42 -47 -25 -122 -31 -202 -17 -33 6 -67 11 -75
11 -8 0 -48 7 -88 14 -105 20 -108 17 -16 -14 52 -18 95 -27 118 -24 22 3 36
0 36 -7 0 -6 -5 -11 -12 -11 -9 0 -8 -3 1 -12 11 -10 14 -10 18 0 8 21 21 13
21 -13 0 -20 -6 -25 -25 -25 -14 0 -21 -4 -18 -10 3 -5 -1 -10 -9 -10 -19 0
-21 -16 -4 -26 6 -4 17 1 25 11 7 11 13 13 13 7 0 -7 -9 -20 -19 -29 -11 -9
-17 -23 -14 -31 5 -11 1 -13 -15 -7 -12 3 -22 2 -22 -3 0 -5 10 -13 23 -16 20
-6 21 -7 4 -17 -14 -8 -16 -14 -6 -25 9 -11 9 -14 -1 -14 -7 0 -10 -8 -7 -20
3 -10 0 -21 -7 -24 -7 -3 -6 -8 4 -15 12 -9 11 -11 -7 -11 -14 0 -23 -6 -23
-15 0 -8 -9 -15 -19 -15 -11 0 -28 -3 -38 -6 -13 -4 -14 -3 -5 4 19 13 -11 24
-43 16 -19 -5 -23 -2 -22 20 0 14 4 26 9 26 5 0 8 6 7 13 -2 20 12 57 23 57 5
0 6 5 3 10 -3 5 -3 16 2 23 4 6 8 14 9 17 0 3 6 18 12 33 7 16 12 33 12 38 0
5 4 9 9 9 14 0 6 53 -9 58 -7 3 -17 -3 -22 -12 -6 -11 -16 -15 -29 -11 -12 4
-21 1 -25 -10 -4 -9 -13 -14 -21 -11 -7 3 -16 -1 -20 -10 -3 -9 -12 -13 -21
-9 -9 3 -21 -3 -29 -15 -8 -11 -19 -18 -24 -14 -5 3 -16 1 -23 -5 -8 -7 -19
-10 -24 -9 -6 2 -18 -6 -26 -17 -13 -16 -17 -17 -25 -6 -7 10 -11 9 -23 -8 -9
-13 -21 -19 -30 -16 -9 4 -18 -1 -22 -10 -4 -11 -12 -14 -26 -10 -11 3 -20 3
-20 -2 0 -4 -4 -14 -9 -22 -8 -12 -12 -12 -25 -2 -13 11 -16 9 -22 -13 -7 -29
-24 -35 -24 -8 0 14 -3 13 -18 -6 -11 -14 -24 -21 -34 -17 -10 4 -17 -1 -21
-16 -5 -19 -8 -20 -22 -9 -17 14 -17 15 -32 -20 l-11 -25 -10 25 -10 25 -12
-27 c-7 -16 -16 -28 -20 -28 -11 0 -19 39 -9 45 4 3 6 12 2 20 -3 8 -1 15 5
15 14 0 21 47 8 60 -8 8 -4 10 14 8 21 -3 24 1 25 27 0 17 6 34 13 38 10 7 10
12 1 23 -9 11 -8 14 5 14 13 0 16 5 11 21 -4 13 -3 19 2 16 16 -10 34 38 20
52 -8 8 -5 11 11 11 15 0 22 6 22 19 0 11 7 27 16 35 8 9 12 20 9 26 -10 16
24 24 51 12 19 -9 24 -9 24 2 0 13 -51 25 -135 31 -22 2 -51 7 -65 13 -14 5
-27 7 -30 4 -3 -2 1 -7 7 -9 9 -3 10 -10 3 -23 -6 -12 -16 -17 -26 -13 -10 4
-17 -2 -21 -16 -6 -23 -23 -29 -23 -8 0 7 -9 13 -20 14 -11 1 -18 -2 -15 -7 3
-4 2 -16 -1 -25 -5 -12 -9 -13 -14 -5 -9 15 -30 4 -30 -16 0 -8 -4 -14 -10
-14 -5 0 -10 5 -10 10 0 19 -28 10 -33 -12 -5 -18 -8 -19 -21 -9 -13 11 -17 9
-28 -13 -10 -22 -13 -24 -20 -11 -13 22 -25 18 -32 -11 -6 -21 -9 -24 -21 -14
-12 10 -17 7 -27 -15 -11 -24 -13 -25 -24 -10 -11 15 -14 14 -28 -7 -13 -18
-18 -20 -25 -9 -7 10 -12 8 -25 -10 -13 -19 -18 -21 -25 -10 -7 11 -11 9 -21
-8 -9 -18 -14 -20 -26 -10 -13 10 -17 10 -25 -2 -5 -8 -9 -20 -9 -26 0 -18
-10 -16 -26 5 -19 24 -17 32 9 33 16 1 18 2 5 6 -19 5 -25 23 -8 23 6 0 10 5
10 11 0 7 8 18 18 25 16 13 16 13 -3 14 -19 1 -19 1 -1 15 10 7 15 18 11 24
-3 7 3 11 15 11 12 0 18 4 15 10 -4 6 -1 18 6 26 10 13 10 17 -2 25 -11 7 -10
9 7 9 17 0 20 6 19 30 -1 19 3 30 12 30 7 0 13 9 13 20 0 11 5 20 10 20 6 0
10 8 10 19 0 14 -12 21 -47 30 -130 32 -209 55 -220 64 -7 5 -13 7 -13 4 0 -3
-24 1 -52 9 -48 13 -54 12 -66 -4 -7 -9 -21 -16 -31 -14 -10 2 -22 -5 -25 -15
-6 -15 -8 -15 -17 -3 -8 13 -13 11 -29 -9 l-20 -23 -1 23 c0 14 -3 18 -6 10
-3 -7 -14 -22 -24 -32 -11 -11 -19 -30 -19 -43 0 -14 -5 -28 -10 -31 -6 -3
-10 3 -10 14 0 29 -19 26 -30 -4 -5 -14 -14 -25 -20 -25 -6 0 -9 4 -5 9 3 5 1
12 -5 16 -5 3 -17 -12 -26 -34 -16 -42 -29 -51 -37 -28 -6 19 -37 -11 -37 -37
0 -12 -7 -31 -15 -42 -14 -19 -14 -18 -15 4 0 30 -16 28 -24 -3 -7 -27 -26
-34 -26 -10 0 31 -27 14 -40 -25 -12 -36 -30 -54 -30 -30 0 18 -22 10 -27 -10
-5 -20 -23 -28 -23 -10 0 6 -6 10 -14 10 -15 0 -19 -10 -31 -67 -8 -38 -22
-43 -27 -10 -3 20 -5 19 -23 -13 -14 -26 -20 -31 -23 -17 -5 25 -17 21 -31 -9
-11 -26 -12 -26 -26 -8 -13 18 -14 17 -26 -11 -9 -23 -13 -26 -16 -12 -5 21
-33 23 -33 2 0 -8 -9 -29 -20 -47 -13 -22 -20 -27 -20 -15 0 26 -15 21 -30
-10 -11 -23 -14 -25 -17 -10 -9 38 -33 10 -47 -55 -7 -29 -29 -40 -24 -12 2
10 -3 19 -9 21 -8 3 -13 -4 -13 -16 0 -11 -9 -35 -20 -53 -17 -29 -20 -30 -20
-11 0 35 -20 37 -31 4 -12 -33 -29 -42 -29 -15 0 14 -3 14 -15 4 -8 -7 -15
-21 -15 -32 0 -11 -5 -29 -11 -41 l-12 -21 -9 24 -9 25 -16 -34 c-16 -32 -17
-32 -25 -12 -8 23 -28 20 -28 -3 0 -8 -8 -31 -17 -52 l-17 -39 -6 30 -6 30
-20 -32 -20 -32 -19 44 c-10 25 -22 45 -27 45 -16 0 -8 20 10 21 10 0 12 3 5
6 -7 2 -13 16 -13 29 0 14 -6 27 -14 30 -10 4 -14 16 -11 39 3 19 0 37 -5 40
-6 3 -10 15 -10 25 0 10 -6 23 -14 27 -21 13 -26 62 -7 73 14 8 14 9 -1 15
-19 8 -23 40 -9 77 16 43 21 78 13 78 -5 0 -14 -15 -20 -32 l-12 -33 5 38 c4
35 -8 51 -18 25 -3 -9 -7 -7 -12 6 -5 11 -3 27 3 37 14 22 16 49 3 49 -5 0
-12 -6 -14 -12 -3 -7 -6 -3 -6 10 -1 21 25 90 50 135 5 10 7 22 4 27 -3 5 0
12 6 15 6 4 0 13 -16 21 -29 15 -45 11 -45 -12 0 -8 -4 -14 -10 -14 -14 0 -13
-37 2 -46 8 -5 9 -2 5 9 -3 10 -2 17 3 17 6 0 10 7 10 15 0 8 7 15 16 15 11 0
14 -5 10 -16 -4 -9 -11 -36 -17 -60 -6 -24 -15 -44 -20 -44 -5 0 -9 -7 -9 -15
0 -8 -4 -15 -10 -15 -12 0 -12 -2 -1 37 11 37 3 50 -15 25 -12 -16 -13 -15
-14 5 0 12 5 34 12 50 6 15 12 30 13 33 1 3 7 18 13 33 15 35 15 47 1 47 -6 0
-9 -6 -6 -14 3 -8 0 -17 -8 -20 -18 -7 -25 16 -11 36 8 10 21 15 32 12 15 -4
24 3 36 28 14 28 17 30 17 11 1 -13 6 -23 11 -23 6 0 10 -4 10 -9 0 -5 -6 -8
-12 -7 -7 0 -15 -3 -16 -9 -2 -5 -8 -16 -14 -23 -6 -7 -8 -16 -4 -20 4 -4 14
2 22 12 14 19 14 19 14 -2 0 -12 5 -22 10 -22 6 0 9 3 8 8 -2 4 0 8 5 10 10 3
10 1 2 -31 -5 -17 -2 -33 5 -42 8 -9 10 -27 6 -46 -5 -27 -4 -30 16 -23 17 5
20 3 15 -10 -4 -9 -10 -22 -13 -30 -3 -8 3 -15 15 -19 14 -3 18 -11 14 -26 -4
-15 -1 -21 12 -21 13 0 16 -6 12 -21 -4 -15 0 -23 14 -26 14 -4 18 -11 14 -22
-16 -41 -17 -68 -1 -74 9 -4 13 -13 10 -22 -5 -11 0 -18 15 -22 25 -6 25 -10
7 -45 -13 -25 -13 -28 5 -33 14 -5 18 -12 13 -29 -4 -18 0 -25 18 -31 37 -13
43 -11 43 10 0 16 6 19 29 17 27 -4 28 -2 24 28 -5 31 -4 32 29 27 35 -6 41 1
21 21 -9 9 -8 12 6 12 9 0 26 -5 36 -10 20 -11 38 4 19 15 -17 11 28 47 54 43
14 -2 21 2 19 10 -2 9 7 12 30 10 22 -2 32 1 31 10 -2 7 7 12 22 12 22 0 25 4
25 36 0 35 1 35 32 29 27 -6 30 -5 24 10 -5 15 -2 16 28 11 32 -6 35 -5 41 24
5 25 12 30 35 30 22 0 29 6 34 25 4 14 4 30 2 34 -3 4 6 6 21 3 17 -3 24 -1
19 6 -9 15 14 26 27 13 18 -18 37 -13 37 9 0 11 5 20 10 20 6 0 10 7 10 15 0
11 7 14 25 9 19 -5 25 -2 25 10 0 11 9 16 29 16 25 0 31 5 36 30 5 25 10 29
20 20 19 -16 37 -3 30 21 -4 13 -2 19 9 19 9 0 16 7 16 15 0 9 6 12 15 9 11
-5 12 -11 4 -25 -5 -11 -6 -19 0 -19 5 0 12 7 15 16 4 10 13 13 25 9 14 -4 24
2 37 25 13 20 26 30 44 30 l25 1 -25 13 c-14 7 -56 24 -95 36 -38 13 -92 32
-118 42 -27 11 -55 17 -63 14 -7 -3 -16 -1 -19 4 -13 21 -63 10 -83 -17 -11
-16 -24 -25 -28 -20 -4 4 -2 13 4 19 15 15 15 28 2 28 -6 0 -21 -25 -35 -55
-24 -56 -39 -71 -33 -35 2 10 -1 19 -7 20 -5 0 -10 -3 -10 -7 0 -15 -32 -53
-38 -46 -4 3 -2 12 4 19 7 8 7 14 -1 19 -5 3 -10 -1 -10 -10 0 -8 -6 -18 -14
-21 -8 -3 -20 -26 -27 -52 -9 -35 -14 -41 -16 -24 -5 27 -33 29 -40 2 -6 -23
-19 -26 -26 -7 -2 6 -15 -9 -28 -35 -14 -30 -26 -43 -30 -36 -4 7 -3 20 2 30
7 13 6 18 -3 18 -7 0 -19 -13 -26 -30 -16 -35 -32 -40 -25 -7 4 21 4 22 -11 3
-20 -25 -20 -36 -1 -36 17 0 21 -35 5 -45 -5 -3 -10 1 -10 9 0 26 -20 18 -31
-11 -9 -25 -12 -26 -20 -10 -13 23 -26 22 -34 -3 -10 -31 -28 -25 -20 7 6 24
5 25 -11 12 -15 -12 -16 -10 -9 31 6 42 6 44 -9 25 -15 -19 -15 -18 -9 15 3
19 10 40 15 47 13 16 1 34 -17 26 -9 -3 -15 1 -15 11 0 9 5 16 11 16 5 0 7 5
4 10 -4 6 -2 17 5 25 12 15 -3 31 -20 20 -6 -3 -10 -2 -10 4 0 14 16 22 24 13
4 -4 13 -7 19 -7 7 0 12 -7 12 -15 0 -8 6 -19 13 -23 8 -5 10 -17 6 -30 -6
-19 -5 -20 10 -8 20 17 21 41 1 41 -19 0 -19 0 1 38 8 18 13 36 9 42 -7 12 18
14 29 3 4 -5 11 -8 14 -9 4 0 14 -3 22 -7 8 -3 33 -11 55 -16 36 -10 42 -9 56
10 11 15 18 18 23 10 10 -16 26 -14 26 3 0 8 5 18 11 22 7 4 9 -2 7 -16 -5
-36 18 -34 28 1 12 41 40 55 30 15 -9 -35 6 -33 22 4 13 29 37 44 26 16 -3 -8
-1 -17 5 -21 6 -3 11 1 11 10 0 8 7 18 15 21 8 4 15 13 15 21 0 10 -6 13 -16
9 -10 -4 -25 3 -38 17 -22 24 -115 58 -206 76 -176 34 -257 55 -303 76 -28 13
-74 31 -102 39 -27 8 -104 31 -170 51 -66 20 -131 39 -145 42 -14 3 -27 9 -30
13 -3 4 -20 10 -37 13 l-33 7 0 -475z m727 123 c-3 -8 -6 -5 -6 6 -1 11 2 17
5 13 3 -3 4 -12 1 -19z m223 -18 c0 -5 -4 -10 -10 -10 -5 0 -10 5 -10 10 0 6
5 10 10 10 6 0 10 -4 10 -10z m-320 -10 c0 -5 -5 -10 -11 -10 -5 0 -7 5 -4 10
3 6 8 10 11 10 2 0 4 -4 4 -10z m125 1 c3 -5 1 -12 -5 -16 -5 -3 -10 1 -10 9
0 18 6 21 15 7z m-600 -31 c3 -5 -1 -10 -10 -10 -9 0 -13 5 -10 10 3 6 8 10
10 10 2 0 7 -4 10 -10z m689 -5 c-7 -16 -24 -21 -24 -6 0 8 7 13 27 20 1 1 0
-6 -3 -14z m-598 -66 c5 -9 -1 -10 -20 -5 -21 5 -28 2 -35 -15 -5 -14 -10 -18
-15 -11 -3 6 -2 13 4 17 6 4 8 11 5 16 -4 5 7 9 24 9 16 0 33 -5 37 -11z m-51
-128 c-3 -12 -11 -21 -16 -21 -6 0 -8 3 -6 8 2 4 7 16 11 26 9 25 20 13 11
-13z m1670 -721 c3 -5 -1 -10 -9 -10 -9 0 -16 5 -16 10 0 6 4 10 9 10 6 0 13
-4 16 -10z m6 -2420 c10 -6 19 -19 19 -30 0 -10 6 -21 13 -24 6 -3 2 -3 -10
-1 -28 7 -41 -14 -19 -30 15 -12 15 -13 -6 -12 -18 2 -23 8 -23 27 0 14 -5 25
-12 25 -7 0 -18 6 -24 13 -16 15 -5 16 22 2 15 -9 21 -7 26 6 3 9 0 20 -8 25
-20 12 -2 11 22 -1z m-86 -60 c3 -5 1 -10 -4 -10 -6 0 -11 5 -11 10 0 6 2 10
4 10 3 0 8 -4 11 -10z m35 -50 c0 -5 -2 -10 -4 -10 -3 0 -8 5 -11 10 -3 6 -1
10 4 10 6 0 11 -4 11 -10z m-60 -30 c0 -5 -2 -10 -4 -10 -3 0 -8 5 -11 10 -3
6 -1 10 4 10 6 0 11 -4 11 -10z"/>
<path d="M1078 3830 c-12 -20 -13 -32 -6 -36 13 -8 38 23 38 48 0 27 -13 22
-32 -12z"/>
<path d="M1015 3780 c-3 -5 1 -10 9 -10 9 0 16 5 16 10 0 6 -4 10 -9 10 -6 0
-13 -4 -16 -10z"/>
<path d="M699 3775 c-1 -3 -2 -8 -3 -12 -1 -5 -5 -13 -9 -20 -6 -10 10 -31 17
-22 10 12 15 59 6 59 -5 0 -11 -2 -11 -5z"/>
<path d="M731 3743 c-16 -31 -17 -66 -2 -71 10 -3 12 0 8 12 -8 21 27 58 41
44 6 -6 16 -7 22 -3 15 9 2 21 -32 29 -20 5 -30 2 -37 -11z"/>
<path d="M875 3750 c3 -5 8 -10 11 -10 2 0 4 5 4 10 0 6 -5 10 -11 10 -5 0 -7
-4 -4 -10z"/>
<path d="M910 3740 c0 -5 5 -10 10 -10 6 0 10 5 10 10 0 6 -4 10 -10 10 -5 0
-10 -4 -10 -10z"/>
<path d="M817 3720 c-19 -23 -22 -40 -7 -40 6 0 10 6 10 14 0 20 21 31 30 16
8 -13 30 -5 30 11 0 6 -5 7 -10 4 -6 -4 -17 -2 -24 4 -9 7 -17 5 -29 -9z"/>
<path d="M950 3725 c0 -8 5 -15 10 -15 6 0 10 7 10 15 0 8 -4 15 -10 15 -5 0
-10 -7 -10 -15z"/>
<path d="M763 3694 c-6 -13 -8 -26 -4 -28 3 -2 11 7 18 20 6 13 8 26 4 28 -3
2 -11 -7 -18 -20z"/>
<path d="M900 3704 c0 -8 5 -12 10 -9 6 4 8 11 5 16 -9 14 -15 11 -15 -7z"/>
<path d="M930 3690 c0 -5 5 -10 10 -10 6 0 10 5 10 10 0 6 -4 10 -10 10 -5 0
-10 -4 -10 -10z"/>
<path d="M880 3670 c0 -5 5 -10 10 -10 6 0 10 5 10 10 0 6 -4 10 -10 10 -5 0
-10 -4 -10 -10z"/>
<path d="M1600 3669 c0 -5 5 -7 10 -4 6 3 10 8 10 11 0 2 -4 4 -10 4 -5 0 -10
-5 -10 -11z"/>
<path d="M786 3648 c-7 -30 -7 -28 2 -28 4 0 7 4 7 9 0 5 3 13 8 17 10 10 9
24 -2 24 -5 0 -11 -10 -15 -22z"/>
<path d="M830 3650 c0 -5 5 -10 11 -10 5 0 7 5 4 10 -3 6 -8 10 -11 10 -2 0
-4 -4 -4 -10z"/>
<path d="M1540 3650 c0 -5 5 -10 10 -10 6 0 10 5 10 10 0 6 -4 10 -10 10 -5 0
-10 -4 -10 -10z"/>
<path d="M740 3635 c0 -8 5 -15 10 -15 6 0 10 7 10 15 0 8 -4 15 -10 15 -5 0
-10 -7 -10 -15z"/>
<path d="M1450 3640 c0 -5 5 -10 10 -10 6 0 10 5 10 10 0 6 -4 10 -10 10 -5 0
-10 -4 -10 -10z"/>
<path d="M649 3638 c-4 -19 -9 -51 -6 -47 1 2 8 11 15 21 9 11 10 18 2 23 -5
3 -10 5 -11 3z"/>
<path d="M1490 3630 c0 -5 5 -10 10 -10 6 0 10 5 10 10 0 6 -4 10 -10 10 -5 0
-10 -4 -10 -10z"/>
<path d="M688 3613 c7 -3 16 -2 19 1 4 3 -2 6 -13 5 -11 0 -14 -3 -6 -6z"/>
<path d="M1538 3613 c7 -3 16 -2 19 1 4 3 -2 6 -13 5 -11 0 -14 -3 -6 -6z"/>
<path d="M3511 3591 c-18 -5 -42 -18 -53 -29 l-20 -20 23 -13 c35 -20 213 -17
262 4 41 18 45 28 21 48 -19 16 -182 22 -233 10z"/>
<path d="M1430 3569 c0 -5 5 -7 10 -4 6 3 10 8 10 11 0 2 -4 4 -10 4 -5 0 -10
-5 -10 -11z"/>
<path d="M1335 3560 c3 -5 8 -10 11 -10 2 0 4 5 4 10 0 6 -5 10 -11 10 -5 0
-7 -4 -4 -10z"/>
<path d="M310 3544 c0 -8 5 -12 10 -9 6 3 10 10 10 16 0 5 -4 9 -10 9 -5 0
-10 -7 -10 -16z"/>
<path d="M1375 3550 c3 -5 8 -10 11 -10 2 0 4 5 4 10 0 6 -5 10 -11 10 -5 0
-7 -4 -4 -10z"/>
<path d="M695 3541 c-3 -5 -1 -12 5 -16 5 -3 10 1 10 9 0 18 -6 21 -15 7z"/>
<path d="M1410 3540 c0 -5 5 -10 10 -10 6 0 10 5 10 10 0 6 -4 10 -10 10 -5 0
-10 -4 -10 -10z"/>
<path d="M2275 3530 c28 -12 37 -12 30 0 -3 6 -16 10 -28 9 -21 0 -21 -1 -2
-9z"/>
<path d="M2330 3520 c0 -5 5 -10 10 -10 6 0 10 5 10 10 0 6 -4 10 -10 10 -5 0
-10 -4 -10 -10z"/>
<path d="M2365 3501 c-6 -11 9 -23 19 -14 9 9 7 23 -3 23 -6 0 -12 -4 -16 -9z"/>
<path d="M2265 3460 c-3 -5 -1 -10 4 -10 6 0 11 5 11 10 0 6 -2 10 -4 10 -3 0
-8 -4 -11 -10z"/>
<path d="M305 3430 c3 -5 8 -10 11 -10 2 0 4 5 4 10 0 6 -5 10 -11 10 -5 0 -7
-4 -4 -10z"/>
<path d="M350 3420 c0 -5 5 -10 10 -10 6 0 10 5 10 10 0 6 -4 10 -10 10 -5 0
-10 -4 -10 -10z"/>
<path d="M2840 3420 c0 -5 5 -10 11 -10 5 0 7 5 4 10 -3 6 -8 10 -11 10 -2 0
-4 -4 -4 -10z"/>
<path d="M2929 3407 c9 -11 27 -16 57 -15 56 3 42 18 -23 26 -44 5 -47 4 -34
-11z"/>
<path d="M4532 3400 c-38 -36 -22 -75 41 -99 l27 -11 0 65 c0 61 -1 65 -23 65
-13 0 -33 -9 -45 -20z"/>
<path d="M3060 3400 c0 -5 5 -10 10 -10 6 0 10 5 10 10 0 6 -4 10 -10 10 -5 0
-10 -4 -10 -10z"/>
<path d="M3800 3390 c0 -5 7 -10 16 -10 8 0 12 5 9 10 -3 6 -10 10 -16 10 -5
0 -9 -4 -9 -10z"/>
<path d="M280 3360 c0 -5 5 -10 11 -10 5 0 7 5 4 10 -3 6 -8 10 -11 10 -2 0
-4 -4 -4 -10z"/>
<path d="M385 3289 c-9 -14 -2 -20 14 -10 8 6 9 11 3 15 -6 3 -14 1 -17 -5z"/>
<path d="M3305 3280 c3 -5 10 -10 16 -10 5 0 9 5 9 10 0 6 -7 10 -16 10 -8 0
-12 -4 -9 -10z"/>
<path d="M330 3260 c0 -5 5 -10 10 -10 6 0 10 5 10 10 0 6 -4 10 -10 10 -5 0
-10 -4 -10 -10z"/>
<path d="M1040 3260 c0 -5 5 -10 10 -10 6 0 10 5 10 10 0 6 -4 10 -10 10 -5 0
-10 -4 -10 -10z"/>
<path d="M2945 3241 c-3 -5 -1 -12 4 -15 5 -3 11 1 15 9 6 16 -9 21 -19 6z"/>
<path d="M10 3210 c0 -5 5 -10 10 -10 6 0 10 5 10 10 0 6 -4 10 -10 10 -5 0
-10 -4 -10 -10z"/>
<path d="M385 3160 c-3 -5 -1 -10 4 -10 6 0 11 5 11 10 0 6 -2 10 -4 10 -3 0
-8 -4 -11 -10z"/>
<path d="M410 3109 c0 -5 5 -7 10 -4 6 3 10 8 10 11 0 2 -4 4 -10 4 -5 0 -10
-5 -10 -11z"/>
<path d="M450 3100 c0 -5 5 -10 11 -10 5 0 7 5 4 10 -3 6 -8 10 -11 10 -2 0
-4 -4 -4 -10z"/>
<path d="M4515 3063 c-32 -90 -59 -158 -66 -168 -4 -5 -10 -26 -14 -45 -6 -31
-16 -58 -45 -125 -18 -39 -42 -100 -46 -115 -8 -30 -46 -146 -59 -180 -20 -52
-14 -104 17 -137 31 -33 47 -86 40 -131 -2 -19 0 -32 6 -32 6 0 10 -13 10 -30
-1 -16 4 -36 11 -43 6 -8 8 -27 5 -46 -4 -18 -2 -42 4 -54 20 -41 33 -94 26
-110 -3 -10 -1 -17 5 -17 6 0 11 -9 11 -19 0 -11 5 -23 10 -26 6 -3 10 -15 10
-25 0 -10 7 -23 16 -28 11 -6 13 -11 5 -16 -16 -11 -13 -29 4 -22 11 4 15 -2
15 -23 0 -16 7 -31 15 -35 8 -3 12 -12 9 -21 -4 -9 -1 -15 7 -15 11 0 12 -2 1
-9 -19 -12 -15 -152 5 -158 6 -2 9 -12 8 -21 -14 -69 -14 -82 -1 -82 10 0 16
-22 21 -75 4 -41 11 -77 16 -81 5 -3 2 -12 -6 -20 -19 -20 -19 -38 0 -54 8 -7
15 -18 15 -25 0 -7 7 -15 15 -18 12 -5 14 123 15 1017 l0 1024 -22 6 c-40 10
-45 7 -63 -41z"/>
<path d="M610 3039 c0 -5 5 -7 10 -4 6 3 10 8 10 11 0 2 -4 4 -10 4 -5 0 -10
-5 -10 -11z"/>
<path d="M110 3009 c0 -5 5 -7 10 -4 6 3 10 8 10 11 0 2 -4 4 -10 4 -5 0 -10
-5 -10 -11z"/>
<path d="M490 2970 c0 -5 5 -10 11 -10 5 0 7 5 4 10 -3 6 -8 10 -11 10 -2 0
-4 -4 -4 -10z"/>
<path d="M1480 2930 c0 -5 5 -10 10 -10 6 0 10 5 10 10 0 6 -4 10 -10 10 -5 0
-10 -4 -10 -10z"/>
<path d="M1598 2915 c-3 -14 -1 -25 3 -25 5 0 9 4 9 9 0 5 3 16 6 25 3 9 2 16
-4 16 -5 0 -12 -11 -14 -25z"/>
<path d="M1520 2920 c0 -5 5 -10 10 -10 6 0 10 5 10 10 0 6 -4 10 -10 10 -5 0
-10 -4 -10 -10z"/>
<path d="M1435 2909 c-10 -15 3 -25 16 -12 7 7 7 13 1 17 -6 3 -14 1 -17 -5z"/>
<path d="M1555 2909 c-4 -6 -5 -13 -2 -16 7 -7 27 6 27 18 0 12 -17 12 -25 -2z"/>
<path d="M70 2899 c0 -5 5 -7 10 -4 6 3 10 8 10 11 0 2 -4 4 -10 4 -5 0 -10
-5 -10 -11z"/>
<path d="M1370 2838 c-16 -35 -25 -47 -28 -35 -5 25 -19 21 -26 -8 -7 -27 -26
-34 -26 -10 0 26 -15 16 -29 -17 l-12 -33 -10 25 -10 25 -14 -32 c-16 -38 -35
-43 -35 -10 -1 18 -5 14 -22 -18 -21 -39 -22 -39 -28 -15 -6 24 -7 23 -19 -12
-13 -41 -31 -51 -31 -18 0 29 -13 24 -28 -10 -14 -32 -32 -40 -32 -15 0 22
-17 18 -23 -5 -6 -25 -24 -26 -30 -2 -3 12 -7 9 -17 -15 -12 -34 -30 -44 -30
-18 0 26 -15 17 -29 -17 -13 -30 -14 -31 -18 -10 -6 30 -16 28 -30 -8 -13 -34
-33 -40 -33 -10 0 11 -4 20 -10 20 -5 0 -10 -4 -10 -9 0 -5 -3 -16 -6 -25 -4
-12 0 -16 15 -16 15 0 21 -6 21 -24 0 -13 7 -26 15 -30 8 -3 15 -15 15 -26 0
-11 7 -23 15 -26 8 -4 15 -14 15 -24 0 -10 6 -23 14 -30 8 -6 12 -18 10 -25
-3 -7 4 -19 16 -25 11 -6 18 -16 14 -21 -3 -6 2 -16 12 -23 10 -8 15 -20 11
-29 -4 -11 1 -18 14 -22 14 -5 19 -13 16 -25 -3 -11 1 -21 9 -24 8 -3 14 -14
14 -25 0 -10 7 -22 16 -25 9 -3 14 -13 10 -21 -3 -9 3 -19 14 -25 11 -6 20
-17 20 -26 0 -8 7 -17 16 -21 10 -4 14 -13 10 -28 -4 -17 -1 -24 14 -28 11 -3
23 -1 26 4 3 5 0 9 -5 9 -6 0 -11 5 -11 10 0 6 7 10 15 10 18 0 20 20 3 20 -8
0 -5 7 6 15 11 8 14 15 8 15 -7 0 -12 5 -12 10 0 6 8 10 17 10 13 0 14 3 5 12
-16 16 -15 28 3 28 8 0 15 5 15 10 0 6 -4 10 -10 10 -5 0 -10 5 -10 11 0 6 7
9 15 6 8 -4 17 -2 20 3 4 6 1 10 -4 10 -6 0 -11 7 -11 15 0 8 7 15 15 15 9 0
12 6 9 15 -4 8 -1 15 6 15 7 0 9 8 5 20 -4 12 -2 20 6 20 9 0 9 3 0 14 -9 10
-9 16 -1 21 6 4 9 13 6 21 -4 9 3 18 17 24 12 5 18 9 13 9 -5 1 -3 7 3 15 8
10 9 16 1 21 -17 11 -11 25 11 25 17 0 19 3 10 14 -9 11 -8 15 6 20 15 6 15 8
3 17 -13 8 -13 11 2 19 9 6 15 17 12 25 -4 8 -1 15 6 15 10 0 10 3 0 15 -10
12 -10 15 4 15 9 0 17 9 17 23 1 12 3 29 4 37 1 8 3 23 4 33 0 9 7 17 15 17 9
0 12 7 9 20 -4 14 0 20 11 20 19 0 21 16 4 23 -8 3 -5 6 5 6 14 1 17 6 12 21
-5 14 -2 20 9 20 9 0 16 8 16 20 0 13 -5 18 -15 14 -11 -5 -13 1 -8 30 3 20 4
36 2 36 -2 0 -15 -24 -29 -52z"/>
<path d="M1625 2880 c-3 -5 -2 -10 4 -10 5 0 13 5 16 10 3 6 2 10 -4 10 -5 0
-13 -4 -16 -10z"/>
<path d="M1505 2870 c3 -5 8 -10 11 -10 2 0 4 5 4 10 0 6 -5 10 -11 10 -5 0
-7 -4 -4 -10z"/>
<path d="M135 2840 c3 -5 8 -10 11 -10 2 0 4 5 4 10 0 6 -5 10 -11 10 -5 0 -7
-4 -4 -10z"/>
<path d="M215 2810 c-3 -5 1 -10 9 -10 9 0 16 5 16 10 0 6 -4 10 -9 10 -6 0
-13 -4 -16 -10z"/>
<path d="M1860 2801 c0 -5 -3 -18 -7 -28 -6 -16 -5 -16 10 -4 19 15 23 41 7
41 -5 0 -10 -4 -10 -9z"/>
<path d="M95 2730 c-3 -5 -1 -10 4 -10 6 0 11 5 11 10 0 6 -2 10 -4 10 -3 0
-8 -4 -11 -10z"/>
<path d="M128 2673 c7 -3 16 -2 19 1 4 3 -2 6 -13 5 -11 0 -14 -3 -6 -6z"/>
<path d="M3886 2604 c-9 -24 12 -44 24 -24 5 8 8 19 7 24 -6 17 -24 17 -31 0z"/>
<path d="M4075 2539 c-4 -6 -5 -13 -2 -16 7 -7 27 6 27 18 0 12 -17 12 -25 -2z"/>
<path d="M1392 2408 c-12 -30 -14 -31 -24 -14 -8 15 -12 16 -19 5 -13 -21 -11
-39 6 -39 9 0 15 -9 15 -25 0 -16 6 -25 16 -25 11 0 15 -6 11 -20 -3 -13 1
-24 13 -30 11 -6 16 -17 13 -28 -3 -12 2 -22 11 -25 9 -4 16 -15 16 -26 0 -10
6 -21 14 -24 9 -3 12 -14 9 -25 -3 -12 1 -22 11 -25 9 -4 16 -15 16 -26 0 -10
6 -21 14 -24 9 -4 12 -14 9 -25 -3 -14 2 -21 16 -25 15 -3 19 -10 15 -22 -4
-9 1 -21 11 -29 10 -7 15 -18 11 -25 -4 -6 0 -14 8 -17 9 -3 16 -16 16 -29 0
-13 7 -26 16 -29 9 -3 14 -13 10 -21 -3 -8 1 -27 9 -42 8 -15 15 -35 15 -44 0
-9 7 -20 16 -23 11 -4 19 4 30 29 7 19 14 40 14 48 0 7 5 18 11 24 20 20 -11
88 -50 109 -29 16 -37 28 -46 69 -12 52 -40 107 -81 161 -27 37 -60 129 -70
197 -6 46 -24 73 -32 49 -6 -19 -22 -14 -22 8 0 30 -14 24 -28 -12z"/>
<path d="M3158 2266 c-20 -6 -47 -21 -60 -33 -14 -13 -28 -23 -32 -23 -4 0
-12 -5 -19 -10 -7 -6 -23 -19 -37 -29 -23 -17 -23 -21 -11 -45 8 -14 18 -26
23 -26 5 0 19 -10 31 -21 63 -60 138 -75 222 -43 22 8 61 21 86 29 49 16 99
55 99 78 0 36 -110 101 -205 122 -16 3 -37 7 -45 9 -8 2 -32 -1 -52 -8z m42
-42 c0 -3 -11 -20 -25 -38 -16 -21 -25 -46 -25 -69 0 -44 -12 -53 -35 -27 -33
36 -15 98 37 127 24 13 48 17 48 7z"/>
<path d="M2222 2130 c-49 -12 -51 -20 -4 -20 31 0 44 -5 52 -19 9 -18 5 -22
-37 -41 -26 -11 -50 -26 -54 -32 -4 -6 -21 -12 -37 -13 -17 -2 -43 -12 -58
-24 -15 -11 -34 -21 -44 -21 -9 0 -17 -6 -18 -12 0 -7 -5 -31 -11 -53 -13 -52
-3 -62 64 -62 50 0 57 3 88 38 l34 37 -5 -74 c-4 -65 -1 -81 19 -122 13 -26
41 -63 61 -83 21 -19 38 -41 38 -47 0 -7 6 -12 13 -12 6 0 4 -5 -6 -11 -9 -5
-21 -8 -26 -5 -5 4 -7 -3 -4 -14 3 -11 0 -20 -6 -20 -6 0 -11 -5 -11 -11 0 -6
9 -8 20 -4 22 7 27 -9 7 -22 -19 -12 -42 -64 -39 -86 2 -11 -2 -23 -8 -27 -9
-6 -8 -14 4 -32 9 -14 13 -28 9 -31 -3 -4 -1 -7 5 -7 6 0 14 5 17 10 10 16 75
12 82 -5 5 -14 8 -14 24 1 18 16 19 16 19 -12 0 -22 3 -26 10 -14 8 13 10 13
10 -1 0 -23 33 -19 46 6 7 14 18 19 38 17 23 -3 27 0 22 13 -3 9 -2 13 4 10 6
-3 10 -1 10 4 0 16 30 13 36 -3 9 -24 31 -7 26 20 -3 17 0 24 11 24 8 0 17 -6
20 -12 3 -10 7 -10 19 0 13 10 17 10 21 0 4 -11 6 -10 6 0 1 7 6 10 11 7 6 -3
10 -1 10 6 0 8 4 8 15 -1 8 -7 15 -9 15 -4 0 4 7 -1 16 -12 13 -16 15 -16 10
-1 -6 19 10 24 17 5 4 -10 6 -10 6 0 1 6 13 12 29 13 26 0 25 1 -8 12 -19 7
-36 9 -38 5 -2 -5 -8 -8 -13 -8 -5 0 -2 12 8 26 16 25 17 25 24 6 4 -11 20
-22 36 -24 15 -3 37 -9 48 -13 18 -8 19 -7 6 8 -12 15 -12 17 0 13 8 -2 37
-10 64 -17 44 -12 47 -14 25 -20 l-25 -7 27 -1 c15 -1 34 -8 42 -17 9 -8 29
-19 46 -24 26 -7 30 -6 30 11 0 18 24 29 60 27 23 -1 44 6 55 18 12 12 78 34
116 38 27 3 63 29 53 39 -4 3 -20 0 -38 -8 -56 -24 -70 -28 -111 -30 -104 -4
-107 -5 -112 -25 -6 -24 -16 -25 -33 -5 -7 8 -24 15 -39 15 -14 0 -51 13 -81
29 -30 17 -67 35 -82 41 -27 12 -38 30 -18 30 6 0 10 6 10 14 0 10 -8 13 -24
10 -15 -2 -26 2 -30 11 -3 8 -15 15 -26 15 -11 0 -20 5 -20 10 0 6 -3 9 -7 9
-5 -1 -15 -1 -23 0 -11 1 -11 4 -2 13 20 20 14 28 -15 22 -36 -7 -76 20 -53
36 15 10 11 16 -25 35 -6 3 -6 7 1 10 6 3 8 19 6 35 -2 18 0 30 7 30 6 0 8 7
5 15 -4 8 -1 15 5 15 15 0 14 27 -1 33 -8 3 -6 7 7 12 52 20 71 67 40 99 -8 8
-15 18 -15 23 -1 15 -104 73 -159 90 -38 11 -75 14 -120 10 -64 -6 -65 -5 -42
11 40 27 81 73 75 83 -9 15 -32 10 -42 -8 -9 -15 -16 -15 -63 -5 -89 20 -93
21 -127 12z m656 -709 c10 -6 7 -10 -13 -15 -15 -4 -30 -5 -33 -1 -3 3 0 5 7
5 7 0 9 5 6 10 -8 12 15 13 33 1z m-548 -81 c0 -5 -5 -10 -11 -10 -5 0 -7 5
-4 10 3 6 8 10 11 10 2 0 4 -4 4 -10z"/>
<path d="M185 2100 c-4 -12 -5 -24 -2 -27 3 -2 8 5 12 17 4 12 5 24 2 27 -3 2
-8 -5 -12 -17z"/>
<path d="M55 1990 c3 -5 8 -10 11 -10 2 0 4 5 4 10 0 6 -5 10 -11 10 -5 0 -7
-4 -4 -10z"/>
<path d="M90 1980 c0 -5 5 -10 10 -10 6 0 10 5 10 10 0 6 -4 10 -10 10 -5 0
-10 -4 -10 -10z"/>
<path d="M1722 1978 c3 -7 13 -15 22 -16 12 -3 17 1 14 10 -3 7 -13 15 -22 16
-12 3 -17 -1 -14 -10z"/>
<path d="M120 1929 c0 -5 5 -7 10 -4 6 3 10 8 10 11 0 2 -4 4 -10 4 -5 0 -10
-5 -10 -11z"/>
<path d="M30 1920 c0 -5 5 -10 10 -10 6 0 10 5 10 10 0 6 -4 10 -10 10 -5 0
-10 -4 -10 -10z"/>
<path d="M160 1920 c0 -5 5 -10 10 -10 6 0 10 5 10 10 0 6 -4 10 -10 10 -5 0
-10 -4 -10 -10z"/>
<path d="M150 1880 c0 -5 5 -10 11 -10 5 0 7 5 4 10 -3 6 -8 10 -11 10 -2 0
-4 -4 -4 -10z"/>
<path d="M350 1809 c0 -5 5 -7 10 -4 6 3 10 8 10 11 0 2 -4 4 -10 4 -5 0 -10
-5 -10 -11z"/>
<path d="M120 1800 c0 -5 5 -10 10 -10 6 0 10 5 10 10 0 6 -4 10 -10 10 -5 0
-10 -4 -10 -10z"/>
<path d="M390 1794 c0 -8 5 -12 10 -9 6 3 10 10 10 16 0 5 -4 9 -10 9 -5 0
-10 -7 -10 -16z"/>
<path d="M570 1790 c0 -5 5 -10 10 -10 6 0 10 5 10 10 0 6 -4 10 -10 10 -5 0
-10 -4 -10 -10z"/>
<path d="M430 1779 c0 -5 5 -7 10 -4 6 3 10 8 10 11 0 2 -4 4 -10 4 -5 0 -10
-5 -10 -11z"/>
<path d="M200 1769 c0 -5 5 -7 10 -4 6 3 10 8 10 11 0 2 -4 4 -10 4 -5 0 -10
-5 -10 -11z"/>
<path d="M360 1720 c0 -5 5 -10 10 -10 6 0 10 5 10 10 0 6 -4 10 -10 10 -5 0
-10 -4 -10 -10z"/>
<path d="M505 1720 c3 -5 8 -10 11 -10 2 0 4 5 4 10 0 6 -5 10 -11 10 -5 0 -7
-4 -4 -10z"/>
<path d="M0 1710 c0 -5 4 -10 9 -10 6 0 13 5 16 10 3 6 -1 10 -9 10 -9 0 -16
-4 -16 -10z"/>
<path d="M680 1710 c0 -5 5 -10 10 -10 6 0 10 5 10 10 0 6 -4 10 -10 10 -5 0
-10 -4 -10 -10z"/>
<path d="M1630 1706 c0 -7 9 -16 20 -19 17 -4 18 -2 9 14 -11 22 -29 25 -29 5z"/>
<path d="M40 1700 c0 -5 5 -10 10 -10 6 0 10 5 10 10 0 6 -4 10 -10 10 -5 0
-10 -4 -10 -10z"/>
<path d="M180 1699 c0 -5 5 -7 10 -4 6 3 10 8 10 11 0 2 -4 4 -10 4 -5 0 -10
-5 -10 -11z"/>
<path d="M80 1684 c0 -8 5 -12 10 -9 6 3 10 10 10 16 0 5 -4 9 -10 9 -5 0 -10
-7 -10 -16z"/>
<path d="M350 1679 c0 -5 5 -7 10 -4 6 3 10 8 10 11 0 2 -4 4 -10 4 -5 0 -10
-5 -10 -11z"/>
<path d="M475 1650 c-3 -5 -1 -10 4 -10 6 0 11 5 11 10 0 6 -2 10 -4 10 -3 0
-8 -4 -11 -10z"/>
<path d="M1620 1650 c0 -5 5 -10 11 -10 5 0 7 5 4 10 -3 6 -8 10 -11 10 -2 0
-4 -4 -4 -10z"/>
<path d="M555 1620 c-3 -5 -1 -10 4 -10 6 0 11 5 11 10 0 6 -2 10 -4 10 -3 0
-8 -4 -11 -10z"/>
<path d="M690 1579 c0 -5 5 -7 10 -4 6 3 10 8 10 11 0 2 -4 4 -10 4 -5 0 -10
-5 -10 -11z"/>
<path d="M772 1561 c4 -13 18 -16 19 -4 0 4 -5 9 -11 12 -7 2 -11 -2 -8 -8z"/>
<path d="M530 1545 c0 -8 5 -15 10 -15 6 0 10 7 10 15 0 8 -4 15 -10 15 -5 0
-10 -7 -10 -15z"/>
<path d="M1958 1553 c7 -3 16 -2 19 1 4 3 -2 6 -13 5 -11 0 -14 -3 -6 -6z"/>
<path d="M720 1530 c0 -5 5 -10 11 -10 5 0 7 5 4 10 -3 6 -8 10 -11 10 -2 0
-4 -4 -4 -10z"/>
<path d="M1620 1530 c0 -5 14 -7 33 -3 45 8 47 13 4 13 -20 0 -37 -4 -37 -10z"/>
<path d="M1 1329 c1 -147 2 -152 15 -109 18 58 37 78 58 61 13 -11 17 -9 26
14 5 14 10 31 10 36 0 6 4 8 8 5 5 -3 6 -25 3 -48 -13 -87 9 -121 89 -141 29
-8 56 -20 58 -27 3 -9 -1 -11 -14 -6 -11 4 -43 14 -72 21 -29 8 -65 23 -79 35
l-27 21 -20 -20 c-15 -15 -21 -38 -24 -86 -3 -47 -8 -65 -18 -65 -19 0 -21
-206 -2 -212 10 -4 10 -16 0 -57 -7 -29 -12 -99 -12 -156 0 -96 2 -104 21
-110 27 -9 35 0 19 20 -20 24 -4 30 26 10 18 -12 29 -14 37 -6 7 7 5 12 -6 17
-32 12 -17 22 19 12 39 -10 54 -4 36 14 -21 21 -13 27 19 16 35 -12 47 -5 29
17 -10 12 -10 18 0 30 11 13 9 20 -10 40 -13 13 -26 22 -30 20 -4 -2 -2 11 4
30 7 23 17 35 29 35 10 0 26 13 35 30 9 16 22 30 29 30 7 0 28 14 47 30 21 19
60 38 101 49 36 10 72 27 80 37 17 22 20 80 5 89 -5 3 -10 22 -10 41 0 19 -4
34 -10 34 -5 0 -10 7 -10 15 0 18 -31 35 -64 35 -14 0 -26 5 -26 11 0 6 -7 9
-15 5 -19 -7 -19 3 0 24 22 24 21 78 -3 130 -22 50 -95 128 -127 136 -36 9
-75 -13 -81 -45 -7 -32 -37 -46 -63 -31 -9 5 -13 10 -8 10 11 0 -28 73 -52 94
l-21 19 1 -154z m56 -558 c-1 -15 -4 -17 -14 -9 -7 5 -10 14 -7 19 10 16 23 9
21 -10z"/>
<path d="M2636 1327 c3 -10 9 -15 12 -12 3 3 0 11 -7 18 -10 9 -11 8 -5 -6z"/>
<path d="M2480 1280 c0 -5 5 -10 10 -10 6 0 10 5 10 10 0 6 -4 10 -10 10 -5 0
-10 -4 -10 -10z"/>
<path d="M3000 1256 c0 -9 7 -16 16 -16 17 0 14 22 -4 28 -7 2 -12 -3 -12 -12z"/>
<path d="M450 1139 c0 -5 5 -7 10 -4 6 3 10 8 10 11 0 2 -4 4 -10 4 -5 0 -10
-5 -10 -11z"/>
<path d="M783 1026 c-30 -16 -70 -69 -56 -73 6 -2 21 -12 32 -22 20 -17 20
-20 5 -50 -8 -17 -20 -31 -25 -31 -5 0 -9 -10 -9 -22 1 -21 2 -21 11 -5 5 9
16 17 23 17 35 0 59 63 34 88 -9 9 -7 17 10 35 40 42 21 89 -25 63z"/>
<path d="M4586 1018 c-3 -13 -1 -27 4 -32 7 -7 10 1 10 22 0 37 -5 41 -14 10z"/>
<path d="M697 993 c-12 -11 -8 -23 8 -23 8 0 15 7 15 15 0 16 -12 20 -23 8z"/>
<path d="M1540 710 c0 -5 5 -10 10 -10 6 0 10 5 10 10 0 6 -4 10 -10 10 -5 0
-10 -4 -10 -10z"/>
<path d="M275 700 c3 -5 10 -10 16 -10 5 0 9 5 9 10 0 6 -7 10 -16 10 -8 0
-12 -4 -9 -10z"/>
<path d="M1530 674 c0 -8 5 -12 10 -9 6 4 8 11 5 16 -9 14 -15 11 -15 -7z"/>
<path d="M1552 631 c2 -7 7 -12 11 -12 12 1 9 15 -3 20 -7 2 -11 -2 -8 -8z"/>
<path d="M170 494 c0 -8 5 -12 10 -9 6 4 8 11 5 16 -9 14 -15 11 -15 -7z"/>
<path d="M2190 481 c0 -12 5 -21 10 -21 6 0 10 6 10 14 0 8 -4 18 -10 21 -5 3
-10 -3 -10 -14z"/>
<path d="M72 481 c2 -7 7 -12 11 -12 12 1 9 15 -3 20 -7 2 -11 -2 -8 -8z"/>
<path d="M116 471 c-4 -7 -5 -15 -2 -18 9 -9 19 4 14 18 -4 11 -6 11 -12 0z"/>
<path d="M156 462 c-3 -6 -1 -14 5 -17 15 -10 25 3 12 16 -7 7 -13 7 -17 1z"/>
<path d="M20 450 c0 -5 5 -10 10 -10 6 0 10 5 10 10 0 6 -4 10 -10 10 -5 0
-10 -4 -10 -10z"/>
<path d="M785 451 c-26 -8 -47 -22 -63 -43 -11 -14 -11 -22 2 -46 8 -16 22
-32 30 -35 22 -8 71 19 119 66 l42 40 -35 9 c-53 14 -73 15 -95 9z"/>
<path d="M60 440 c0 -5 5 -10 10 -10 6 0 10 5 10 10 0 6 -4 10 -10 10 -5 0
-10 -4 -10 -10z"/>
<path d="M195 440 c-3 -5 1 -10 9 -10 9 0 16 5 16 10 0 6 -4 10 -9 10 -6 0
-13 -4 -16 -10z"/>
<path d="M240 430 c0 -5 5 -10 10 -10 6 0 10 5 10 10 0 6 -4 10 -10 10 -5 0
-10 -4 -10 -10z"/>
<path d="M510 410 c0 -5 7 -10 15 -10 8 0 15 5 15 10 0 6 -7 10 -15 10 -8 0
-15 -4 -15 -10z"/>
<path d="M50 400 c0 -5 5 -10 10 -10 6 0 10 5 10 10 0 6 -4 10 -10 10 -5 0
-10 -4 -10 -10z"/>
<path d="M190 399 c0 -5 5 -7 10 -4 6 3 10 8 10 11 0 2 -4 4 -10 4 -5 0 -10
-5 -10 -11z"/>
<path d="M410 393 c-8 -13 -13 -14 -16 -5 -9 19 -20 14 -33 -15 -12 -26 -13
-27 -24 -8 -10 18 -12 17 -29 -20 -13 -30 -18 -35 -18 -17 0 13 -6 22 -15 22
-8 0 -15 -9 -15 -19 0 -23 -16 -36 -25 -21 -10 17 -21 11 -35 -17 -7 -16 -15
-23 -17 -15 -9 24 -31 12 -39 -20 -6 -30 -7 -31 -15 -12 -14 40 -28 36 -41
-10 -13 -50 -28 -61 -28 -21 0 14 -5 25 -10 25 -15 0 -32 -49 -24 -73 4 -13 2
-17 -5 -13 -6 4 -11 0 -11 -8 0 -20 19 -21 26 -1 9 22 27 18 21 -5 -5 -20 15
-45 26 -33 4 3 7 -8 7 -25 0 -22 5 -32 15 -32 9 0 15 -9 15 -25 l0 -25 205 0
c187 0 204 1 198 17 -5 13 -2 15 11 10 15 -6 17 -3 13 13 -3 11 -1 20 4 20 14
0 11 28 -3 33 -8 3 -6 6 5 6 11 1 17 9 17 26 0 14 5 25 11 25 8 0 7 5 -2 16
-7 9 -9 18 -3 22 15 12 13 72 -3 72 -8 0 -12 4 -8 9 3 6 0 13 -8 18 -7 4 -21
27 -31 51 -11 23 -25 42 -31 42 -7 0 -18 7 -25 15 -17 20 -47 19 -60 -2z"/>
<path d="M90 390 c0 -5 5 -10 10 -10 6 0 10 5 10 10 0 6 -4 10 -10 10 -5 0
-10 -4 -10 -10z"/>
<path d="M120 381 c0 -5 7 -11 15 -15 9 -3 15 0 15 9 0 8 -7 15 -15 15 -8 0
-15 -4 -15 -9z"/>
<path d="M545 380 c3 -5 8 -10 11 -10 2 0 4 5 4 10 0 6 -5 10 -11 10 -5 0 -7
-4 -4 -10z"/>
<path d="M178 363 c7 -3 16 -2 19 1 4 3 -2 6 -13 5 -11 0 -14 -3 -6 -6z"/>
<path d="M75 350 c-3 -5 1 -10 10 -10 9 0 13 5 10 10 -3 6 -8 10 -10 10 -2 0
-7 -4 -10 -10z"/>
<path d="M220 350 c0 -5 4 -10 9 -10 6 0 13 5 16 10 3 6 -1 10 -9 10 -9 0 -16
-4 -16 -10z"/>
<path d="M120 329 c0 -5 5 -7 10 -4 6 3 10 8 10 11 0 2 -4 4 -10 4 -5 0 -10
-5 -10 -11z"/>
<path d="M30 320 c0 -5 5 -10 11 -10 5 0 7 5 4 10 -3 6 -8 10 -11 10 -2 0 -4
-4 -4 -10z"/>
<path d="M170 320 c0 -5 5 -10 10 -10 6 0 10 5 10 10 0 6 -4 10 -10 10 -5 0
-10 -4 -10 -10z"/>
<path d="M65 310 c-3 -5 -1 -10 4 -10 6 0 11 5 11 10 0 6 -2 10 -4 10 -3 0 -8
-4 -11 -10z"/>
<path d="M56 283 c-11 -11 -6 -23 9 -23 8 0 15 4 15 9 0 13 -16 22 -24 14z"/>
<path d="M0 240 c0 -5 5 -10 10 -10 6 0 10 5 10 10 0 6 -4 10 -10 10 -5 0 -10
-4 -10 -10z"/>
<path d="M610 150 c0 -5 5 -10 11 -10 5 0 7 5 4 10 -3 6 -8 10 -11 10 -2 0 -4
-4 -4 -10z"/>
<path d="M0 106 c0 -9 7 -16 16 -16 17 0 14 22 -4 28 -7 2 -12 -3 -12 -12z"/>
<path d="M50 90 c0 -5 5 -10 11 -10 5 0 7 5 4 10 -3 6 -8 10 -11 10 -2 0 -4
-4 -4 -10z"/>
<path d="M0 59 c0 -5 5 -7 10 -4 5 3 10 8 10 11 0 2 -4 4 -10 4 -5 0 -10 -5
-10 -11z"/>
<path d="M40 56 c0 -9 5 -16 10 -16 6 0 10 4 10 9 0 6 -4 13 -10 16 -5 3 -10
-1 -10 -9z"/>
<path d="M570 26 c0 -9 5 -16 10 -16 6 0 10 4 10 9 0 6 -4 13 -10 16 -5 3 -10
-1 -10 -9z"/>
<path d="M617 23 c-12 -11 -8 -23 8 -23 8 0 15 7 15 15 0 16 -12 20 -23 8z"/>
<path d="M20 10 c0 -5 7 -10 15 -10 8 0 15 5 15 10 0 6 -7 10 -15 10 -8 0 -15
-4 -15 -10z"/>
</g>
</svg>
